# xmcd
#
# Track frame offsets: 
#        150
#        12564
#        34613
#        51333
#        68502
#        80450
#        97568
#        110989
#        127255
#        144749
#        159998
#
# Disc length: 2376 seconds
#
# Revision: 0
# Processed by: cddbd v1.5.2PL0 Copyright (c) Steve Scherf et al.
# Submitted via: ExactAudioCopy v1.0b4
#
DISCID=9109460b
DTITLE=Nathan James - Natural Born That Way
DYEAR=2014
DGENRE=Blues
TTITLE0=I'm Gonna Leave
TTITLE1=Look Out Your Window
TTITLE2=Natural Born That Way
TTITLE3=Look Before I Leap
TTITLE4=Take You Back Home
TTITLE5=Doing The Same To You
TTITLE6=Ride With Me Baby
TTITLE7=It Must Have Been Love
TTITLE8=I'm Gonna Tell Them
TTITLE9=Cow Pies
TTITLE10=Don't Believe What People Say
EXTD=
EXTT0=
EXTT1=
EXTT2=
EXTT3=
EXTT4=
EXTT5=
EXTT6=
EXTT7=
EXTT8=
EXTT9=
EXTT10=
PLAYORDER=
